<svg width="128" height="38" viewBox="0 0 128 38" fill="none" xmlns="http://www.w3.org/2000/svg">
<g clip-path="url(#clip0_4_430)">
<path d="M123.384 38H4.48192C2.01802 38 -0.000488281 35.9765 -0.000488281 33.5065V4.4935C-0.000488281 2.0235 2.00854 0 4.48192 0H123.384C125.848 0 127.933 2.014 127.933 4.4935V33.5065C127.933 35.9765 125.848 38 123.384 38Z" fill="#A6A6A6"/>
<path d="M127.014 33.5065C127.014 35.5015 125.403 37.145 123.385 37.145H4.4823C2.4638 37.145 0.852783 35.511 0.852783 33.5065V4.48398C0.852783 2.48898 2.4638 0.85498 4.47282 0.85498H123.385C125.394 0.85498 127.014 2.46998 127.014 4.49348V33.5065Z" fill="black"/>
<path d="M28.5524 18.791C28.524 15.732 31.0542 14.231 31.1679 14.174C29.718 12.084 27.5005 11.799 26.714 11.7705C24.8566 11.552 23.0465 12.8725 22.0989 12.8725C21.1228 12.8725 19.6634 11.7705 18.0903 11.8085C16.0718 11.837 14.1765 13.015 13.1341 14.8485C10.9829 18.5535 12.5844 24.0445 14.6503 27.056C15.6738 28.519 16.8773 30.191 18.4409 30.115C19.9856 30.0485 20.5637 29.127 22.4211 29.127C24.269 29.127 24.8092 30.1055 26.4012 30.077C28.0596 30.039 29.102 28.5855 30.0971 27.094C31.2816 25.403 31.765 23.7405 31.7839 23.655C31.746 23.636 28.5619 22.42 28.5429 18.753L28.5524 18.791ZM25.5199 9.785C26.3444 8.74 26.913 7.3435 26.7519 5.909C25.5578 5.9565 24.0605 6.7355 23.1982 7.752C22.44 8.645 21.7482 10.127 21.9283 11.495C23.274 11.59 24.6575 10.811 25.5294 9.785H25.5199ZM50.8412 29.925H48.6806L47.5055 26.22H43.4021L42.2839 29.925H40.1991L44.2456 17.29H46.7379L50.8128 29.925H50.8412ZM47.1454 24.6525L46.084 21.356C45.9703 21.0235 45.7618 20.216 45.4491 18.981H45.4112C45.288 19.513 45.089 20.311 44.8142 21.356L43.7433 24.662H47.1359L47.1454 24.6525ZM61.2654 25.27C61.2654 26.809 60.8579 28.025 60.0335 28.937C59.2754 29.735 58.3467 30.134 57.2379 30.134C56.0344 30.134 55.1815 29.7065 54.6508 28.842H54.6129V33.6395H52.5944V23.845C52.5944 22.8665 52.566 21.869 52.5186 20.843H54.3002L54.4139 22.2965H54.4518C55.1152 21.204 56.1576 20.6625 57.5127 20.6625C58.5741 20.6625 59.4649 21.0995 60.1851 21.945C60.8959 22.8 61.256 23.921 61.256 25.308L61.2654 25.27ZM59.2185 25.3365C59.2185 24.4435 59.0005 23.7215 58.6025 23.1515C58.1666 22.534 57.5791 22.2395 56.8399 22.2395C56.3376 22.2395 55.8922 22.4295 55.4753 22.7525C55.0678 23.085 54.8119 23.5125 54.6792 24.054C54.6224 24.32 54.5845 24.529 54.5845 24.681V26.201C54.5845 26.866 54.793 27.436 55.2004 27.8825C55.6079 28.329 56.1291 28.5665 56.7736 28.5665C57.5317 28.5665 58.1287 28.2815 58.5551 27.6925C58.9911 27.1035 59.1996 26.3245 59.1996 25.365L59.2185 25.3365ZM71.7275 25.27C71.7275 26.809 71.3106 28.025 70.4672 28.937C69.728 29.735 68.7898 30.134 67.6811 30.134C66.487 30.134 65.6246 29.7065 65.1034 28.842H65.0845V33.6395H63.066V23.845C63.066 22.8665 63.0376 21.869 62.9902 20.843H64.7623L64.876 22.2965H64.9139C65.5773 21.204 66.6007 20.6625 67.9748 20.6625C69.0457 20.6625 69.946 21.0995 70.6662 21.945C71.3769 22.8 71.737 23.921 71.737 25.308L71.7275 25.27ZM69.6711 25.3365C69.6711 24.4435 69.4816 23.7215 69.0646 23.1515C68.6098 22.534 68.0222 22.2395 67.2925 22.2395C66.7903 22.2395 66.3449 22.4295 65.9374 22.7525C65.5394 23.085 65.274 23.5125 65.1508 24.054C65.0845 24.32 65.0561 24.529 65.0561 24.681V26.201C65.0561 26.866 65.2456 27.436 65.6626 27.8825C66.089 28.3385 66.6102 28.5665 67.2736 28.5665C68.0317 28.5665 68.6192 28.2815 69.0457 27.6925C69.4627 27.1035 69.6806 26.3245 69.6806 25.365L69.6711 25.3365ZM83.4121 26.3815C83.4121 27.455 83.0331 28.329 82.3034 29.013C81.4789 29.7445 80.3322 30.115 78.8634 30.115C77.5082 30.115 76.4184 29.849 75.594 29.3265L76.0678 27.6355C76.9491 28.158 77.9252 28.424 78.9866 28.424C79.7447 28.424 80.3417 28.253 80.7682 27.911C81.1851 27.5595 81.4031 27.094 81.4031 26.524C81.4031 26.011 81.242 25.574 80.8914 25.2225C80.5502 24.871 79.9627 24.5575 79.1572 24.244C76.9491 23.4175 75.8404 22.211 75.8404 20.634C75.8404 19.589 76.2194 18.734 77.006 18.069C77.7641 17.404 78.8065 17.0715 80.0953 17.0715C81.2515 17.0715 82.1991 17.2615 82.9667 17.6605L82.4455 19.3515C81.7253 18.9715 80.9293 18.7815 80.029 18.7815C79.3183 18.7815 78.7591 18.943 78.3611 19.2945C78.001 19.627 77.8399 20.007 77.8399 20.463C77.8399 20.957 78.0294 21.375 78.4085 21.698C78.7497 22.002 79.3562 22.325 80.247 22.6765C81.3273 23.1135 82.1423 23.6265 82.635 24.2155C83.1468 24.7855 83.3932 25.5265 83.3932 26.4005L83.4121 26.3815ZM90.112 22.325H87.8756V26.7615C87.8756 27.8825 88.2546 28.443 89.0507 28.443C89.4108 28.443 89.714 28.4145 89.9509 28.348L90.0078 29.887C89.5908 30.039 89.0602 30.115 88.4157 30.115C87.6197 30.115 86.9943 29.868 86.5394 29.3835C86.094 28.9085 85.876 28.0725 85.876 26.9135V22.325H84.5493V20.805H85.876V19.152L87.8661 18.5535V20.8335H90.0836V22.3535L90.112 22.325ZM100.157 25.2985C100.157 26.695 99.7497 27.8445 98.9537 28.747C98.1008 29.6685 97.0015 30.134 95.6179 30.134C94.2912 30.134 93.2488 29.6875 92.4527 28.804C91.6567 27.9205 91.2587 26.809 91.2587 25.4505C91.2587 24.0255 91.6567 22.857 92.4907 21.9545C93.2962 21.0615 94.386 20.6055 95.779 20.6055C97.1057 20.6055 98.1861 21.0615 99.001 21.9355C99.7592 22.8095 100.157 23.9305 100.157 25.289V25.2985ZM98.0534 25.365C98.0534 24.51 97.8639 23.7975 97.5132 23.199C97.1057 22.4675 96.4992 22.1065 95.7127 22.1065C94.9072 22.1065 94.2912 22.4675 93.8648 23.199C93.4857 23.7975 93.3246 24.529 93.3246 25.403C93.3246 26.239 93.4952 26.961 93.8648 27.5595C94.3007 28.3195 94.9072 28.671 95.6937 28.671C96.4708 28.671 97.0773 28.291 97.5132 27.5595C97.8733 26.942 98.0629 26.2105 98.0629 25.3745L98.0534 25.365ZM106.715 22.591C106.525 22.553 106.298 22.534 106.08 22.534C105.369 22.534 104.82 22.819 104.431 23.3415C104.118 23.8165 103.957 24.4245 103.957 25.1465V29.925H101.929L101.948 23.6835C101.948 22.6385 101.92 21.6885 101.872 20.8145H103.616L103.692 22.5815H103.749C103.967 21.9735 104.298 21.4985 104.763 21.128C105.208 20.805 105.691 20.653 106.222 20.653C106.383 20.653 106.554 20.653 106.696 20.6815V22.61L106.715 22.591ZM115.756 24.9375C115.756 25.2985 115.727 25.6025 115.68 25.859H109.615C109.643 26.7615 109.937 27.4455 110.496 27.9205C111.027 28.329 111.69 28.538 112.486 28.538C113.396 28.538 114.192 28.3955 114.95 28.1105L115.263 29.5355C114.41 29.8965 113.386 30.0865 112.23 30.0865C110.809 30.0865 109.7 29.6685 108.895 28.8515C108.099 27.9965 107.701 26.8945 107.701 25.4885C107.701 24.1205 108.08 22.971 108.819 22.0685C109.615 21.09 110.676 20.596 112.012 20.596C113.311 20.596 114.306 21.071 114.979 22.04C115.519 22.819 115.793 23.769 115.793 24.909L115.756 24.9375ZM113.822 24.415C113.841 23.8165 113.709 23.294 113.443 22.857C113.083 22.287 112.543 22.002 111.832 22.002C111.169 22.002 110.629 22.287 110.221 22.838C109.88 23.275 109.681 23.788 109.615 24.415H113.822ZM46.482 9.5C46.482 10.64 46.1503 11.4665 45.4775 12.0365C44.8426 12.559 43.9613 12.8155 42.8241 12.8155C42.2555 12.8155 41.7817 12.768 41.3742 12.7205V6.65C41.8954 6.555 42.464 6.5265 43.0799 6.5265C44.1697 6.5265 44.9753 6.764 45.5438 7.2295C46.1503 7.771 46.4631 8.531 46.4631 9.5095L46.482 9.5ZM45.4396 9.538C45.4396 8.816 45.2501 8.2555 44.871 7.866C44.473 7.486 43.9234 7.296 43.1842 7.296C42.8715 7.296 42.6156 7.296 42.3787 7.353V12.008L43.042 12.027C43.8002 12.027 44.3972 11.8085 44.8142 11.3905C45.2311 10.9725 45.4207 10.3455 45.4207 9.519L45.4396 9.538ZM52.0258 10.488C52.0258 11.172 51.8363 11.742 51.4572 12.179C51.0308 12.635 50.4906 12.863 49.8083 12.863C49.1449 12.863 48.6332 12.6445 48.2447 12.198C47.8656 11.7705 47.6761 11.2195 47.6761 10.564C47.6761 9.8705 47.8656 9.3005 48.2826 8.854C48.6995 8.4075 49.2302 8.189 49.8936 8.189C50.5569 8.189 51.0876 8.4075 51.4856 8.854C51.8647 9.272 52.0542 9.804 52.0542 10.488H52.0258ZM51.0023 10.5165C51.0023 10.108 50.9076 9.7565 50.737 9.4525C50.5285 9.101 50.2347 8.9205 49.8462 8.9205C49.4482 8.9205 49.1449 9.082 48.9365 9.4335C48.7469 9.7185 48.6711 10.0985 48.6711 10.5165C48.6711 10.925 48.7659 11.2765 48.9365 11.5615C49.1544 11.9415 49.4482 12.103 49.8367 12.103C50.2158 12.103 50.5001 11.913 50.7086 11.5615C50.8981 11.2575 50.9929 10.8965 50.9929 10.488L51.0023 10.5165ZM59.4838 8.284L58.0813 12.749H57.1526L56.584 10.8205C56.4229 10.3075 56.2997 9.8325 56.205 9.348C56.1102 9.842 55.987 10.3265 55.8259 10.8015L55.2194 12.73H54.2907L52.9829 8.265H54.0159L54.5371 10.393C54.6508 10.8965 54.755 11.3715 54.8403 11.818C54.9351 11.457 55.0488 10.982 55.2194 10.393L55.8543 8.265H56.6693L57.2758 10.355C57.418 10.868 57.5412 11.362 57.6359 11.8275H57.6549C57.7307 11.3715 57.8255 10.8775 57.9581 10.355L58.5078 8.265H59.4744L59.4838 8.284ZM64.6296 12.749H63.6346V10.184C63.6346 9.405 63.3313 9.0155 62.7343 9.0155C62.45 9.0155 62.2036 9.1105 62.0141 9.3195C61.8246 9.538 61.7298 9.7945 61.7298 10.0795V12.7395H60.7442V9.5475C60.7442 9.1485 60.7442 8.721 60.7158 8.265H61.5971L61.635 8.968H61.6635C61.7772 8.759 61.9477 8.588 62.1752 8.436C62.4595 8.246 62.7438 8.17 63.0944 8.17C63.5114 8.17 63.8525 8.303 64.1368 8.5785C64.478 8.911 64.6486 9.405 64.6486 10.0605V12.7395L64.6296 12.749ZM67.3778 12.749H66.3733V6.2415H67.3683V12.768L67.3778 12.749ZM73.2154 10.488C73.2154 11.172 73.0258 11.742 72.6278 12.179C72.2108 12.635 71.6802 12.863 70.9884 12.863C70.3534 12.863 69.8322 12.6445 69.4437 12.198C69.0646 11.7705 68.8562 11.2195 68.8562 10.564C68.8562 9.8705 69.0457 9.3005 69.4627 8.854C69.8796 8.4075 70.4103 8.189 71.0737 8.189C71.737 8.189 72.2582 8.4075 72.6562 8.854C73.0353 9.272 73.2248 9.804 73.2248 10.488H73.2154ZM72.1729 10.5165C72.1729 10.108 72.0971 9.7565 71.9171 9.4525C71.6896 9.101 71.3959 8.9205 71.0073 8.9205C70.6093 8.9205 70.3061 9.082 70.0976 9.4335C69.908 9.7185 69.8133 10.0985 69.8133 10.5165C69.8133 10.925 69.908 11.2765 70.0976 11.5615C70.3061 11.9415 70.5998 12.103 70.9884 12.103C71.3674 12.103 71.6517 11.913 71.8792 11.5615C72.0687 11.2575 72.1635 10.8965 72.1635 10.488L72.1729 10.5165ZM78.02 12.7585H77.1292L77.0344 12.2455H77.006C76.7027 12.6255 76.2668 12.844 75.6982 12.844C75.2718 12.844 74.9401 12.711 74.6748 12.4355C74.4378 12.2075 74.3241 11.894 74.3241 11.533C74.3241 10.9915 74.5516 10.583 75.0064 10.279C75.4803 9.994 76.1057 9.8515 76.9396 9.861V9.766C76.9396 9.1675 76.6364 8.873 76.0204 8.873C75.575 8.873 75.1865 8.987 74.8548 9.2055L74.6653 8.5405C75.0728 8.303 75.5845 8.1605 76.1815 8.1605C77.3566 8.1605 77.9442 8.7875 77.9442 10.0225V11.6755C77.9442 12.1315 77.9631 12.483 78.0105 12.749L78.02 12.7585ZM76.9776 11.2195V10.5545C75.8972 10.5355 75.3476 10.8395 75.3476 11.457C75.3476 11.685 75.4234 11.8655 75.5371 11.9795C75.6793 12.0745 75.8498 12.141 76.0394 12.141C76.2573 12.141 76.4658 12.0745 76.6459 11.951C76.8354 11.799 76.9491 11.6185 76.9965 11.4095V11.2195H76.9776ZM83.6585 12.768H82.7772L82.7393 12.0555C82.455 12.597 81.9812 12.8725 81.2894 12.8725C80.7492 12.8725 80.3038 12.6635 79.9627 12.236C79.6215 11.8085 79.413 11.267 79.413 10.5925C79.413 9.861 79.6026 9.2625 79.9816 8.8255C80.3607 8.4075 80.8156 8.1985 81.3652 8.1985C81.9622 8.1985 82.3887 8.4075 82.6256 8.8065V6.2415H83.6301V11.5615C83.6301 11.9985 83.6301 12.3975 83.6585 12.768ZM82.635 10.887V10.127C82.635 10.0035 82.635 9.899 82.6066 9.823C82.5498 9.5855 82.4171 9.386 82.2465 9.215C82.057 9.025 81.8201 8.9585 81.5831 8.9585C81.2041 8.9585 80.9198 9.101 80.6924 9.3955C80.4839 9.6805 80.3701 10.0605 80.3701 10.5355C80.3701 10.963 80.4649 11.324 80.6734 11.5995C80.8914 11.8845 81.1851 12.046 81.5452 12.046C81.8674 12.046 82.1328 11.913 82.3318 11.666C82.5213 11.438 82.6161 11.1625 82.6161 10.8395L82.635 10.887ZM92.159 10.507C92.159 11.172 91.9694 11.742 91.5714 12.1885C91.1545 12.6445 90.6238 12.8725 89.932 12.8725C89.2686 12.8725 88.7569 12.654 88.3684 12.2075C87.9893 11.78 87.7808 11.229 87.7808 10.5735C87.7808 9.88 87.9703 9.31 88.3873 8.8635C88.8043 8.417 89.335 8.1985 89.9983 8.1985C90.6617 8.1985 91.1924 8.417 91.5904 8.8635C91.9694 9.2815 92.159 9.8135 92.159 10.4975V10.507ZM91.1166 10.526C91.1166 10.1175 91.0407 9.766 90.8607 9.462C90.6522 9.1105 90.3584 8.93 89.9699 8.93C89.5719 8.93 89.2686 9.0915 89.0602 9.443C88.8706 9.728 88.7948 10.108 88.7948 10.526C88.7948 10.9345 88.8896 11.286 89.0602 11.571C89.2781 11.951 89.5719 12.1125 89.9604 12.1125C90.3395 12.1125 90.6238 11.9225 90.8512 11.571C91.0407 11.267 91.1355 10.906 91.1355 10.4975L91.1166 10.526ZM97.4943 12.768H96.5087V10.203C96.5087 9.4145 96.2055 9.025 95.599 9.025C95.3147 9.025 95.0683 9.12 94.8882 9.329C94.7082 9.538 94.6039 9.804 94.6039 10.089V12.749H93.6278V9.557C93.6278 9.158 93.6089 8.7305 93.5805 8.2745H94.4523L94.4997 8.9775H94.5281C94.6418 8.7685 94.8124 8.5975 95.0398 8.4455C95.2957 8.2555 95.6084 8.1795 95.9212 8.1795C96.3381 8.1795 96.6793 8.3125 96.9636 8.588C97.3047 8.9205 97.4753 9.4145 97.4753 10.07V12.749L97.4943 12.768ZM104.185 9.0345H103.085V11.2195C103.085 11.7705 103.275 12.046 103.654 12.046C103.844 12.046 103.995 12.027 104.109 11.9985L104.137 12.7585C103.919 12.825 103.664 12.8535 103.341 12.8535C102.962 12.8535 102.65 12.7395 102.422 12.502C102.195 12.2645 102.081 11.8655 102.081 11.2955V9.025H101.437V8.284H102.081V7.4575L103.057 7.1725V8.284H104.156V9.025L104.185 9.0345ZM109.435 12.768H108.44V10.222C108.44 9.424 108.155 9.025 107.549 9.025C107.075 8.9965 106.753 9.234 106.601 9.69C106.544 9.785 106.535 9.918 106.535 10.07V12.749H105.54V6.232H106.525V8.93H106.544C106.857 8.436 107.302 8.189 107.871 8.189C108.298 8.189 108.629 8.322 108.914 8.5975C109.245 8.93 109.406 9.4335 109.406 10.0985V12.7585L109.435 12.768ZM114.855 10.317C114.855 10.507 114.855 10.6495 114.827 10.773H111.842C111.861 11.21 112.003 11.552 112.278 11.78C112.534 11.97 112.846 12.065 113.254 12.065C113.709 12.065 114.107 12.008 114.486 11.875L114.628 12.559C114.211 12.749 113.709 12.844 113.131 12.844C112.439 12.844 111.899 12.635 111.501 12.2265C111.103 11.818 110.913 11.2765 110.913 10.5735C110.913 9.9085 111.103 9.3385 111.463 8.892C111.842 8.417 112.372 8.17 113.036 8.17C113.671 8.17 114.173 8.4265 114.495 8.9015C114.751 9.2815 114.874 9.7565 114.874 10.3075L114.855 10.317ZM113.908 10.0605C113.908 9.7755 113.86 9.5095 113.718 9.3005C113.548 9.0155 113.282 8.8825 112.932 8.8825C112.609 8.8825 112.344 9.0155 112.145 9.291C111.974 9.5 111.88 9.766 111.842 10.051H113.927L113.908 10.0605Z" fill="white"/>
</g>
<defs>
<clipPath id="clip0_4_430">
<rect width="127.933" height="38" fill="white" transform="translate(-0.000488281)"/>
</clipPath>
</defs>
</svg>
