<svg width="29" height="25" viewBox="0 0 29 25" fill="none" xmlns="http://www.w3.org/2000/svg">
<path d="M1.9375 0.31255C1.62256 0.31255 1.32051 0.437662 1.09781 0.660361C0.875111 0.88306 0.75 1.18511 0.75 1.50005C0.75 1.81499 0.875111 2.11704 1.09781 2.33974C1.32051 2.56244 1.62256 2.68755 1.9375 2.68755H4.57375L7.68975 15.1563C7.95456 16.2132 8.901 16.9375 9.98994 16.9375H23.6106C24.6829 16.9375 25.5937 16.2251 25.8751 15.1919L28.9531 3.87505H9.0625L9.65625 6.25005H25.8727L23.6094 14.5625H9.98875L6.87394 2.0938C6.74527 1.58226 6.44866 1.12869 6.03162 0.805735C5.61457 0.482777 5.10121 0.309112 4.57375 0.31255H1.9375ZM22.125 16.9375C20.1716 16.9375 18.5625 18.5466 18.5625 20.5C18.5625 22.4535 20.1716 24.0625 22.125 24.0625C24.0784 24.0625 25.6875 22.4535 25.6875 20.5C25.6875 18.5466 24.0784 16.9375 22.125 16.9375ZM11.4375 16.9375C9.48406 16.9375 7.875 18.5466 7.875 20.5C7.875 22.4535 9.48406 24.0625 11.4375 24.0625C13.3909 24.0625 15 22.4535 15 20.5C15 18.5466 13.3909 16.9375 11.4375 16.9375ZM11.4375 19.3125C12.1073 19.3125 12.625 19.8303 12.625 20.5C12.625 21.1698 12.1073 21.6875 11.4375 21.6875C10.7677 21.6875 10.25 21.1698 10.25 20.5C10.25 19.8303 10.7677 19.3125 11.4375 19.3125ZM22.125 19.3125C22.7948 19.3125 23.3125 19.8303 23.3125 20.5C23.3125 21.1698 22.7948 21.6875 22.125 21.6875C21.4552 21.6875 20.9375 21.1698 20.9375 20.5C20.9375 19.8303 21.4552 19.3125 22.125 19.3125Z" fill="#121212"/>
</svg>
