<?xml version="1.0" standalone="no"?>
<!DOCTYPE svg PUBLIC "-//W3C//DTD SVG 20010904//EN"
 "http://www.w3.org/TR/2001/REC-SVG-20010904/DTD/svg10.dtd">
<svg version="1.0" xmlns="http://www.w3.org/2000/svg"
 width="32.000000pt" height="32.000000pt" viewBox="0 0 32.000000 32.000000"
 preserveAspectRatio="xMidYMid meet">

<g transform="translate(0.000000,32.000000) scale(0.100000,-0.100000)"
fill="#000000" stroke="none">
<path d="M150 203 l0 -66 -25 23 c-14 13 -25 19 -25 14 0 -6 14 -23 30 -39
l30 -29 30 29 c17 16 30 33 30 39 0 5 -11 -1 -25 -14 l-25 -23 0 66 c0 38 -4
67 -10 67 -6 0 -10 -29 -10 -67z"/>
<path d="M50 103 c0 -16 5 -34 12 -41 16 -16 180 -16 196 0 15 15 16 72 2 63
-6 -3 -10 -17 -10 -30 0 -29 -16 -35 -90 -35 -74 0 -90 6 -90 35 0 13 -4 27
-10 30 -6 4 -10 -6 -10 -22z"/>
</g>
</svg>
