<svg width="18" height="18" viewBox="0 0 18 18" fill="none" xmlns="http://www.w3.org/2000/svg">
<g clip-path="url(#clip0_4_560)">
<path d="M9 18C13.9706 18 18 13.9706 18 9C18 4.02944 13.9706 0 9 0C4.02944 0 0 4.02944 0 9C0 13.9706 4.02944 18 9 18Z" fill="#F0F0F0"/>
<path d="M1.8608 3.52026C1.14373 4.45227 0.616982 5.51621 0.310547 6.65152H4.9928L1.8608 3.52026Z" fill="#0052B4"/>
<path d="M17.691 6.65152C17.3845 5.51622 16.8578 4.45228 16.1408 3.52026L13.0095 6.65152H17.691Z" fill="#0052B4"/>
<path d="M0.310547 11.3472C0.617 12.4825 1.14375 13.5464 1.8608 14.4784L4.99205 11.3472H0.310547Z" fill="#0052B4"/>
<path d="M14.4795 1.85982C13.5475 1.14277 12.4836 0.616024 11.3483 0.30957V4.99182L14.4795 1.85982Z" fill="#0052B4"/>
<path d="M3.52124 16.1391C4.45325 16.8561 5.5172 17.3829 6.65249 17.6893V13.0071L3.52124 16.1391Z" fill="#0052B4"/>
<path d="M6.65249 0.30957C5.5172 0.616024 4.45325 1.14277 3.52124 1.85982L6.65249 4.99107V0.30957Z" fill="#0052B4"/>
<path d="M11.3483 17.69C12.4836 17.3836 13.5475 16.8568 14.4795 16.1398L11.3483 13.0085V17.69Z" fill="#0052B4"/>
<path d="M13.0088 11.3472L16.14 14.4784C16.8571 13.5464 17.3838 12.4825 17.6903 11.3472H13.0088Z" fill="#0052B4"/>
<path d="M17.9246 7.82595H10.1733V0.0746975C9.39412 -0.0268523 8.60503 -0.0268523 7.82583 0.0746975V7.82595H0.0745755C-0.0269744 8.60515 -0.0269744 9.39424 0.0745755 10.1734H7.82583V17.9247C8.60503 18.0262 9.39412 18.0262 10.1733 17.9247V10.1734H17.9246C18.0261 9.39424 18.0261 8.60515 17.9246 7.82595Z" fill="#D80027"/>
<path d="M11.3475 11.3474L15.3638 15.3637C15.5483 15.1792 15.7245 14.9867 15.8925 14.7862L12.4545 11.3482H11.3475V11.3474Z" fill="#D80027"/>
<path d="M6.65248 11.3474L2.63623 15.3637C2.82073 15.5482 3.01323 15.7244 3.21373 15.8924L6.65173 12.4537L6.65248 11.3474Z" fill="#D80027"/>
<path d="M6.65169 6.65248L2.63544 2.63623C2.45094 2.82073 2.27469 3.01323 2.10669 3.21373L5.54544 6.65248H6.65244H6.65169Z" fill="#D80027"/>
<path d="M11.3475 6.65169L15.3638 2.63544C15.1793 2.45094 14.9868 2.27469 14.7863 2.10669L11.3483 5.54544L11.3475 6.65169Z" fill="#D80027"/>
</g>
<defs>
<clipPath id="clip0_4_560">
<rect width="18" height="18" fill="white"/>
</clipPath>
</defs>
</svg>
