<svg width="22" height="21" viewBox="0 0 22 21" fill="none" xmlns="http://www.w3.org/2000/svg">
<path fill-rule="evenodd" clip-rule="evenodd" d="M10.8275 0C5.03802 0 0.344727 4.69329 0.344727 10.4828C0.344727 16.2722 5.03802 20.9655 10.8275 20.9655C16.617 20.9655 21.3102 16.2722 21.3102 10.4828C21.3102 4.69329 16.617 0 10.8275 0ZM8.52274 4.92572C9.11909 4.89858 9.30965 4.89194 10.828 4.89194H10.8263C12.3451 4.89194 12.535 4.89858 13.1314 4.92572C13.7265 4.95297 14.1331 5.0472 14.4895 5.18546C14.8575 5.32814 15.1685 5.51916 15.4795 5.83015C15.7905 6.14091 15.9815 6.45284 16.1248 6.82055C16.2622 7.17604 16.3566 7.58231 16.3845 8.1775C16.4113 8.77386 16.4183 8.96442 16.4183 10.4828C16.4183 12.0012 16.4113 12.1913 16.3845 12.7876C16.3566 13.3826 16.2622 13.789 16.1248 14.1446C15.9815 14.5122 15.7905 14.8241 15.4795 15.1349C15.1689 15.4459 14.8574 15.6373 14.4898 15.7801C14.1341 15.9184 13.7274 16.0126 13.1322 16.0399C12.5358 16.067 12.3458 16.0737 10.8273 16.0737C9.30907 16.0737 9.11863 16.067 8.52227 16.0399C7.92719 16.0126 7.52081 15.9184 7.16509 15.7801C6.79761 15.6373 6.48568 15.4459 6.17504 15.1349C5.86416 14.8241 5.67314 14.5122 5.53023 14.1445C5.39209 13.789 5.29786 13.3827 5.27048 12.7875C5.24346 12.1912 5.23671 12.0012 5.23671 10.4828C5.23671 8.96442 5.2437 8.77374 5.27037 8.17739C5.29716 7.58242 5.3915 7.17604 5.53011 6.82044C5.67338 6.45284 5.8644 6.14091 6.17539 5.83015C6.48615 5.51928 6.79807 5.32826 7.16579 5.18546C7.52127 5.0472 7.92754 4.95297 8.52274 4.92572Z" fill="#121212"/>
<path fill-rule="evenodd" clip-rule="evenodd" d="M10.3264 5.89959C10.4238 5.89944 10.5286 5.89949 10.6416 5.89954L10.828 5.89959C12.3207 5.89959 12.4977 5.90495 13.0871 5.93174C13.6323 5.95666 13.9281 6.04775 14.1252 6.12427C14.3861 6.22561 14.5721 6.34674 14.7677 6.54242C14.9633 6.7381 15.0845 6.92447 15.186 7.18537C15.2626 7.38222 15.3538 7.67807 15.3786 8.22318C15.4054 8.81255 15.4112 8.98959 15.4112 10.4817C15.4112 11.9737 15.4054 12.1508 15.3786 12.7401C15.3537 13.2852 15.2626 13.5811 15.186 13.7779C15.0847 14.0388 14.9633 14.2246 14.7677 14.4202C14.572 14.6159 14.3862 14.737 14.1252 14.8383C13.9283 14.9152 13.6323 15.0061 13.0871 15.031C12.4978 15.0578 12.3207 15.0636 10.828 15.0636C9.33509 15.0636 9.15817 15.0578 8.5688 15.031C8.02369 15.0058 7.72784 14.9147 7.53064 14.8382C7.26974 14.7369 7.08337 14.6157 6.88769 14.4201C6.69201 14.2244 6.57088 14.0385 6.46931 13.7775C6.39279 13.5806 6.30159 13.2848 6.27678 12.7397C6.24999 12.1503 6.24463 11.9732 6.24463 10.4803C6.24463 8.98726 6.24999 8.81115 6.27678 8.22178C6.3017 7.67667 6.39279 7.38082 6.46931 7.18374C6.57065 6.92284 6.69201 6.73647 6.88769 6.54079C7.08337 6.34511 7.26974 6.22398 7.53064 6.12241C7.72772 6.04554 8.02369 5.95468 8.5688 5.92964C9.08455 5.90635 9.28443 5.89936 10.3264 5.89819V5.89959ZM13.8122 6.82794C13.4418 6.82794 13.1413 7.1281 13.1413 7.49861C13.1413 7.869 13.4418 8.16951 13.8122 8.16951C14.1826 8.16951 14.4831 7.869 14.4831 7.49861C14.4831 7.12821 14.1826 6.8277 13.8122 6.8277V6.82794ZM7.95673 10.4828C7.95673 8.89723 9.24221 7.6117 10.8278 7.61164C12.4133 7.61164 13.6985 8.89719 13.6985 10.4828C13.6985 12.0684 12.4135 13.3533 10.8279 13.3533C9.24228 13.3533 7.95673 12.0684 7.95673 10.4828Z" fill="#121212"/>
<path fill-rule="evenodd" clip-rule="evenodd" d="M10.828 8.61938C11.8572 8.61938 12.6916 9.4537 12.6916 10.483C12.6916 11.5122 11.8572 12.3466 10.828 12.3466C9.79868 12.3466 8.96436 11.5122 8.96436 10.483C8.96436 9.4537 9.79868 8.61938 10.828 8.61938V8.61938Z" fill="#121212"/>
</svg>
