<svg width="89" height="31" viewBox="0 0 89 31" fill="none" xmlns="http://www.w3.org/2000/svg">
<path d="M68.4355 2.66211C67.7209 1.05956 65.9743 0.00256348 63.9102 0.00256348C61.1712 0.00256348 58.4322 0.00256348 55.6931 0.00256348C55.5344 0.00256348 55.3756 0.0366603 55.2168 0.0366603V17.2214H58.3925V8.25399C59.0673 8.25399 59.6627 8.25399 60.2582 8.25399C60.5757 8.25399 60.6948 8.32218 60.7742 8.59496C61.4887 11.3227 62.3223 14.4937 62.9972 17.2214H66.3316C65.6171 14.3914 64.7438 11.1181 64.0292 8.28808C65.2598 8.21989 66.3316 7.87892 67.2049 7.19699C68.6737 6.0036 69.15 4.26466 68.4355 2.66211ZM64.2277 5.42395C62.3223 5.45805 60.3772 5.42395 58.4321 5.42395V2.7985C60.3375 2.7985 62.2032 2.7644 64.0689 2.7985C64.9026 2.7985 65.498 3.41224 65.498 4.09418C65.5377 4.77611 64.9423 5.42395 64.2277 5.42395Z" fill="#4A9E29"/>
<path d="M13.2584 2.6637C12.5042 1.06115 10.7575 0.00415039 8.73306 0.00415039C5.95436 0.00415039 3.21535 0.00415039 0.476349 0.00415039C0.317566 0.00415039 0.158783 0.0382472 0 0.0382472V17.223H3.17566V8.25558C3.85049 8.25558 4.44592 8.25558 5.04136 8.25558C5.35892 8.25558 5.47801 8.32377 5.5574 8.59654C6.27193 11.3243 7.10554 14.4953 7.78036 17.223H11.1148C10.4003 14.393 9.52698 11.1197 8.81245 8.28967C10.043 8.22148 11.1148 7.88051 11.9881 7.19857C13.4966 6.00519 13.9729 4.26625 13.2584 2.6637ZM9.01093 5.42554C7.10554 5.45964 5.16045 5.42554 3.21536 5.42554V2.80009C5.12075 2.80009 6.98645 2.76599 8.85215 2.80009C9.68576 2.80009 10.2812 3.41383 10.2812 4.09577C10.3209 4.7777 9.76515 5.42554 9.01093 5.42554Z" fill="#4A9E29"/>
<path d="M47.0395 0.138916C43.2287 0.173013 40.1721 2.79847 40.2118 6.07176C40.2515 9.31095 43.3478 11.9364 47.1189 11.9023C50.89 11.8682 53.9465 9.20866 53.9465 5.93537C53.9068 2.76437 50.7709 0.138916 47.0395 0.138916ZM46.9998 9.14047C45.015 9.10637 43.4272 7.70841 43.4669 6.00356C43.5066 4.26463 45.0944 2.90076 47.1586 2.93485C49.1433 2.96895 50.7312 4.36692 50.6915 6.07176C50.6518 7.81069 49.0243 9.17457 46.9998 9.14047Z" fill="#4A9E29"/>
<path d="M42.0776 14.2551C45.4121 14.2551 48.7068 14.2551 52.0016 14.2551C52.0016 15.1757 52.0016 16.3009 52.0016 17.2556C48.7068 17.2556 45.3724 17.2556 42.0776 17.2556C42.0776 16.335 42.0776 15.2098 42.0776 14.2551Z" fill="#4A9E29"/>
<path d="M23.8571 10.8453L24.7304 10.6749C24.6907 10.4703 24.651 10.2316 24.6113 10.027C23.8174 6.89012 20.1257 4.87841 16.4737 5.56034C12.7026 6.27638 10.3606 9.41328 11.1942 12.6184C11.9881 15.7894 15.6798 17.8011 19.3715 17.1192C22.3487 16.5736 24.4525 14.3914 24.7304 11.9023L21.2372 12.5161C20.8005 13.4367 19.8081 14.1868 18.5776 14.3914C16.8707 14.6642 15.2034 13.88 14.5683 12.5161L21.5151 11.2545L23.8571 10.8453ZM14.3301 10.9135C14.5286 9.61786 15.6401 8.56086 17.2279 8.28809C18.7364 8.04941 20.2448 8.62906 20.999 9.72015L14.3301 10.9135Z" fill="#4A9E29"/>
<path d="M85.2666 17.2215H82.0512V5.04891C82.0512 4.70794 82.0512 4.36697 82.0512 4.026C82.0512 3.30997 81.3367 2.79852 80.5428 2.79852C79.7489 2.79852 78.9947 3.27587 78.9947 3.88961C78.9947 4.26468 78.9947 4.67384 78.9947 5.04891V17.2215H75.7793V5.04891C75.7793 4.67384 75.7793 4.26468 75.7793 3.88961C75.7793 3.24178 74.9854 2.76442 74.2312 2.79852C73.4373 2.79852 72.7624 3.30997 72.7227 4.026C72.7227 4.36697 72.7227 4.70794 72.7227 5.04891V17.2215H69.5074C69.5074 12.4479 69.4677 5.59445 69.5074 4.16239C69.5074 2.38936 70.738 0.889097 72.6037 0.275354C74.2709 -0.270195 76.0969 0.00257984 77.4465 1.02548C78.7962 0.00257984 80.6222 -0.270195 82.2894 0.275354C84.1551 0.889097 85.3857 2.38936 85.3857 4.16239C85.2666 5.62855 85.2666 12.4479 85.2666 17.2215Z" fill="#4A9E29"/>
<path d="M38.0286 2.73031C38.0286 1.80969 38.0286 0.88908 38.0286 0.00256348C34.2972 0.00256348 30.6054 0.00256348 26.874 0.00256348H26.1992V2.7644V4.40105V17.2555H29.4543V8.18579C32.3124 8.18579 35.1705 8.18579 38.0286 8.18579C38.0286 7.26518 38.0286 6.34457 38.0286 5.45805C35.1705 5.45805 32.3124 5.45805 29.4543 5.45805V5.35576H29.4146V2.73031C32.3124 2.73031 35.1705 2.73031 38.0286 2.73031Z" fill="#4A9E29"/>
<path d="M31.408 22.7981V28.6286C31.408 29.3502 31.1506 29.9204 30.6357 30.3394C30.1299 30.7583 29.4615 30.9678 28.6305 30.9678C27.7995 30.9678 27.1266 30.7583 26.6118 30.3394C26.1059 29.9204 25.853 29.3502 25.853 28.6286H27.4111C27.4202 28.9855 27.524 29.2687 27.7227 29.4782C27.9305 29.6876 28.2331 29.7924 28.6305 29.7924C29.0279 29.7924 29.3305 29.6876 29.5383 29.4782C29.746 29.2609 29.8499 28.9777 29.8499 28.6286V22.7981H31.408Z" fill="#4A9E29"/>
<path d="M40.6815 24.474V30.8863H39.1369V30.1299C38.893 30.3937 38.5724 30.6031 38.1749 30.7583C37.7865 30.9057 37.3711 30.9794 36.9285 30.9794C36.3414 30.9794 35.813 30.8747 35.3433 30.6652C34.8826 30.4557 34.5168 30.1454 34.2458 29.7342C33.9839 29.323 33.8529 28.8265 33.8529 28.2446V24.474H35.3839V28.0467C35.3839 28.6209 35.551 29.0631 35.8852 29.3734C36.2194 29.676 36.6756 29.8273 37.2536 29.8273C37.8317 29.8273 38.2878 29.676 38.6221 29.3734C38.9653 29.0631 39.1369 28.6209 39.1369 28.0467V24.474H40.6815Z" fill="#4A9E29"/>
<path d="M43.5052 23.6244C43.2252 23.6244 42.9903 23.5429 42.8007 23.38C42.611 23.2171 42.5161 23.0154 42.5161 22.7748C42.5161 22.5343 42.611 22.3326 42.8007 22.1697C42.9903 22.0068 43.2252 21.9253 43.5052 21.9253C43.7762 21.9253 44.0065 22.0068 44.1962 22.1697C44.3859 22.3326 44.4807 22.5343 44.4807 22.7748C44.4807 23.0154 44.3859 23.2171 44.1962 23.38C44.0065 23.5429 43.7762 23.6244 43.5052 23.6244ZM44.2639 24.474V30.8863H42.7194V24.474H44.2639Z" fill="#4A9E29"/>
<path d="M45.7769 27.6743C45.7769 27.0149 45.9305 26.4368 46.2376 25.9403C46.5537 25.436 46.9873 25.0481 47.5383 24.7765C48.0892 24.505 48.7215 24.3692 49.4351 24.3692C50.3383 24.3692 51.0835 24.5554 51.6706 24.9278C52.2668 25.2925 52.6687 25.8162 52.8765 26.4989H51.21C51.0745 26.1808 50.8577 25.9325 50.5596 25.7541C50.2616 25.5757 49.8867 25.4864 49.4351 25.4864C48.8028 25.4864 48.297 25.6804 47.9176 26.0683C47.5473 26.4485 47.3621 26.9838 47.3621 27.6743C47.3621 28.3648 47.5473 28.904 47.9176 29.292C48.297 29.6799 48.8028 29.8739 49.4351 29.8739C50.3293 29.8739 50.9209 29.5364 51.21 28.8614H52.8765C52.6597 29.5131 52.2532 30.0329 51.6571 30.4208C51.0609 30.801 50.3203 30.9911 49.4351 30.9911C48.7215 30.9911 48.0892 30.8553 47.5383 30.5838C46.9873 30.3044 46.5537 29.9165 46.2376 29.42C45.9305 28.9157 45.7769 28.3338 45.7769 27.6743Z" fill="#4A9E29"/>
<path d="M61.2578 27.523C61.2578 27.7635 61.2397 27.9808 61.2036 28.1747H55.4996C55.5448 28.6868 55.7661 29.098 56.1635 29.4083C56.5609 29.7187 57.0487 29.8739 57.6268 29.8739C58.4577 29.8739 59.0449 29.5752 59.3881 28.9777H61.0546C60.8288 29.5674 60.4178 30.0523 59.8217 30.4325C59.2345 30.8049 58.5029 30.9911 57.6268 30.9911C56.9132 30.9911 56.2719 30.8553 55.7028 30.5838C55.1428 30.3044 54.7002 29.9165 54.3751 29.42C54.0589 28.9157 53.9009 28.3338 53.9009 27.6743C53.9009 27.0149 54.0544 26.4368 54.3615 25.9403C54.6777 25.436 55.1157 25.0481 55.6757 24.7765C56.2448 24.505 56.8951 24.3692 57.6268 24.3692C58.3313 24.3692 58.959 24.5011 59.51 24.7649C60.061 25.0287 60.4901 25.4011 60.7972 25.8821C61.1043 26.3554 61.2578 26.9024 61.2578 27.523ZM59.6455 27.1041C59.6365 26.6153 59.4333 26.2235 59.0358 25.9287C58.6384 25.6338 58.1461 25.4864 57.559 25.4864C57.0261 25.4864 56.57 25.6338 56.1906 25.9287C55.8112 26.2157 55.5854 26.6075 55.5132 27.1041H59.6455Z" fill="#4A9E29"/>
<path d="M65.7824 26.8248C65.7824 26.0334 65.9947 25.3235 66.4192 24.6951C66.8528 24.0666 67.4354 23.5778 68.167 23.2287C68.9077 22.8718 69.7161 22.6934 70.5922 22.6934C71.5948 22.6934 72.4845 22.9067 73.2613 23.3335C74.0472 23.7524 74.6162 24.3498 74.9685 25.1257H73.1123C72.8684 24.6989 72.5297 24.3809 72.0961 24.1714C71.6626 23.9619 71.1613 23.8572 70.5922 23.8572C69.969 23.8572 69.4135 23.9774 68.9258 24.2179C68.438 24.4584 68.0541 24.8037 67.7741 25.2537C67.5031 25.7037 67.3676 26.2274 67.3676 26.8248C67.3676 27.4222 67.5031 27.9459 67.7741 28.3959C68.0541 28.8459 68.438 29.195 68.9258 29.4433C69.4135 29.6838 69.969 29.804 70.5922 29.804C71.1613 29.804 71.6626 29.6993 72.0961 29.4898C72.5297 29.2803 72.8684 28.9622 73.1123 28.5355H74.9685C74.6162 29.3114 74.0472 29.9088 73.2613 30.3277C72.4845 30.7467 71.5948 30.9562 70.5922 30.9562C69.7071 30.9562 68.8987 30.7816 68.167 30.4325C67.4354 30.0756 66.8528 29.5829 66.4192 28.9545C65.9947 28.326 65.7824 27.6161 65.7824 26.8248Z" fill="#4A9E29"/>
<path d="M81.0713 30.9678C80.1952 30.9678 79.3868 30.7932 78.6461 30.4441C77.9145 30.0872 77.3319 29.5945 76.8983 28.9661C76.4738 28.3299 76.2615 27.6161 76.2615 26.8248C76.2615 26.0334 76.4738 25.3235 76.8983 24.6951C77.3319 24.0666 77.9145 23.5778 78.6461 23.2287C79.3868 22.8718 80.1952 22.6934 81.0713 22.6934C81.9565 22.6934 82.7649 22.8718 83.4965 23.2287C84.2372 23.5778 84.8198 24.0666 85.2443 24.6951C85.6689 25.3235 85.8811 26.0334 85.8811 26.8248C85.8811 27.6161 85.6689 28.3299 85.2443 28.9661C84.8198 29.5945 84.2372 30.0872 83.4965 30.4441C82.7649 30.7932 81.9565 30.9678 81.0713 30.9678ZM81.0713 29.8157C81.6946 29.8157 82.2501 29.6954 82.7378 29.4549C83.2256 29.2066 83.6049 28.8575 83.8759 28.4075C84.1559 27.9497 84.2959 27.4222 84.2959 26.8248C84.2959 26.2274 84.1559 25.7037 83.8759 25.2537C83.6049 24.8037 83.2256 24.4584 82.7378 24.2179C82.2501 23.9774 81.6946 23.8572 81.0713 23.8572C80.4481 23.8572 79.8926 23.9774 79.4048 24.2179C78.9171 24.4584 78.5332 24.8037 78.2532 25.2537C77.9822 25.7037 77.8467 26.2274 77.8467 26.8248C77.8467 27.4222 77.9822 27.9497 78.2532 28.4075C78.5332 28.8575 78.9171 29.2066 79.4048 29.4549C79.8926 29.6954 80.4481 29.8157 81.0713 29.8157Z" fill="#4A9E29"/>
<path d="M88.0242 30.9678C87.7442 30.9678 87.5094 30.8863 87.3197 30.7234C87.13 30.5605 87.0352 30.3588 87.0352 30.1182C87.0352 29.8777 87.13 29.676 87.3197 29.5131C87.5094 29.3502 87.7442 29.2687 88.0242 29.2687C88.2952 29.2687 88.5256 29.3502 88.7152 29.5131C88.9049 29.676 88.9998 29.8777 88.9998 30.1182C88.9998 30.3588 88.9049 30.5605 88.7152 30.7234C88.5256 30.8863 88.2952 30.9678 88.0242 30.9678Z" fill="#4A9E29"/>
</svg>
