<svg width="155" height="105" viewBox="0 0 155 105" fill="none" xmlns="http://www.w3.org/2000/svg">
<path d="M144.602 96.2846C101.913 63.4275 54.7162 37.4882 3.94702 19.342C0.649656 18.1538 2.82129 13.0308 6.11866 14.219C57.3112 32.5715 105.06 58.8845 148.006 92.0761C150.725 94.2398 147.45 98.6156 144.602 96.2846Z" fill="#53B72C"/>
<path d="M3.41155 13.109C25.1187 0.954315 50.9274 -2.39093 75.1263 4.2707C102.494 11.9532 124.119 32.552 138.709 56.4273C144.761 66.3968 154.698 81.0891 154.332 93.0642C154.147 102.508 140.851 103.152 133.998 103.898C108.896 106.435 82.401 97.816 60.8235 84.8885C34.4994 69.2283 13.8905 45.4576 0.354526 18.1147C-1.32475 14.8864 3.91226 12.7244 5.42464 16.0809C18.1403 41.6619 37.1718 63.7207 61.4686 78.8118C74.361 86.982 88.6149 92.7774 103.473 96.2482C110.184 97.7381 116.972 98.6371 123.709 98.7779C128.047 98.9014 132.59 98.6013 136.876 97.9667C143.601 97.0537 148.785 97.59 147.661 87.8223C146.78 80.792 141.805 72.919 138.408 66.7579C134.665 59.7994 130.293 53.0583 125.42 46.7017C115.93 34.3231 104.015 23.2765 89.9544 16.0037C63.2701 1.94902 31.5465 3.45884 5.44911 18.1883C2.35537 20.033 0.317807 14.9537 3.41155 13.109Z" fill="#53B72C"/>
<path d="M50.0523 2.00203C56.1933 12.4342 62.9226 26.4011 63.8653 38.6999C64.1585 42.1955 58.6528 42.9693 58.3596 39.4737C57.5574 28.3959 51.341 15.0981 45.6742 5.63047C43.8667 2.23489 48.2061 -1.09809 50.0523 2.00203Z" fill="#53B72C"/>
<path d="M89.9838 54.7837C90.1546 47.7425 88.4264 40.2994 87.378 33.3973C86.4578 26.6625 85.4094 19.7603 84.0273 13.1146C83.272 9.70807 88.7778 8.93428 89.533 12.3408C92.5538 25.9668 95.9329 41.4439 95.4631 55.3591C95.4225 59.1111 89.815 58.3685 89.9838 54.7837Z" fill="#53B72C"/>
<path d="M122.477 76.0704C123.061 64.7253 121.746 52.9784 119.006 41.7943C118.251 38.3878 123.59 37.7422 124.512 41.0205C127.508 52.5392 128.618 64.7098 128.085 76.8131C127.788 80.2305 122.308 79.6552 122.477 76.0704Z" fill="#53B72C"/>
<path d="M113.855 73.125C104.7 82.2829 88.3971 92.1474 75.2057 90.8512C71.7924 90.5495 72.3601 85.0638 75.9404 85.2373C87.0658 86.2599 101.906 77.2537 109.52 69.545C111.895 67.4548 116.436 70.6112 113.855 73.125Z" fill="#53B72C"/>
<path d="M85.9783 57.8603C73.7702 65.1109 60.6522 70.1369 46.663 72.6428C43.1337 73.2274 42.4822 67.8808 45.8833 67.1289C58.9484 64.8012 71.1037 60.2489 82.6442 53.5111C85.571 51.7946 88.9051 56.1438 85.9783 57.8603Z" fill="#53B72C"/>
<path d="M35.7259 33.4702C30.206 36.6468 24.507 38.898 18.3337 40.1845C14.9325 40.9364 14.1529 35.4226 17.554 34.6706C22.6363 33.6905 27.5395 31.7848 32.0967 29.0819C35.4856 27.2763 38.8197 31.6255 35.7259 33.4702Z" fill="#53B72C"/>
</svg>
