<svg width="138" height="163" viewBox="0 0 138 163" fill="none" xmlns="http://www.w3.org/2000/svg">
<path d="M66.8817 1.41257C98.0472 5.53578 124.781 22.8728 134.325 53.7423C143.405 83.2727 135.343 116.044 112.786 137.36C100.977 148.613 85.8103 156.705 69.8839 160.187C56.4233 163.134 39.6817 163.635 27.5057 155.92C0.469838 138.472 -1.16435 97.0443 1.64996 68.5952C3.50981 50.1043 9.85195 31.7519 21.576 17.0312C32.8715 2.9086 49.5075 -0.449656 66.8817 1.41257C69.3196 1.69179 69.1935 5.35682 66.7486 5.28121C52.2198 3.71082 36.5531 5.57033 26.3674 17.0774C16.0692 28.8868 9.53005 44.0737 6.65819 59.374C1.52541 87.0379 2.20361 123.646 21.526 145.952C42.2255 169.727 83.3724 156.425 104.342 139.748C126.885 121.795 137.757 93.2895 132.815 65.0082C130.257 50.4572 123.918 36.095 113.056 25.7714C100.409 13.9658 83.596 7.63671 66.6433 5.37986C64.4161 4.90333 64.5492 1.03469 66.8817 1.41257Z" fill="#FFD586"/>
<path d="M30.329 8.63884C45.6512 4.9342 62.5829 7.80188 75.4264 16.8618C89.2676 26.5642 95.0302 42.8449 96.718 58.9996C100.438 96.1097 87.4315 139.225 54.3084 159.399C52.2219 160.761 50.402 157.342 52.5868 156.084C83.3143 137.365 95.2607 98.3956 93.3884 63.8905C92.5156 47.761 87.8067 30.4936 74.38 20.6003C62.1477 11.5593 45.9256 8.81545 31.2216 12.3354C28.7557 12.8706 27.9614 9.27902 30.329 8.63884Z" fill="#FFD586"/>
<path d="M32.2473 12.1633C40.8561 37.6024 46.6899 63.6692 49.6504 90.2586C49.8755 92.6096 46.1731 93.5142 45.9481 91.1632C42.9876 64.5739 37.1608 38.3035 28.5449 13.0679C27.807 10.803 31.5094 9.89832 32.2473 12.1633Z" fill="#FFD586"/>
<path d="M93.3454 56.2455C79.4713 68.2501 65.2394 84.7278 47.1072 90.078C44.7396 90.7182 43.9454 87.1266 46.2145 86.3815C63.4194 81.3083 77.4406 65.0279 90.7879 53.5167C92.6776 51.9445 95.2351 54.6734 93.3454 56.2455Z" fill="#FFD586"/>
<path d="M82.8484 115.337C71.9159 107.05 60.3372 99.7614 48.0068 93.571C45.8007 92.4836 47.7464 89.2825 49.9525 90.3699C62.2829 96.5603 73.8616 103.849 84.7941 112.136C86.6841 113.519 84.7384 116.721 82.8484 115.337Z" fill="#FFD586"/>
<path d="M47.7394 89.4861C45.7324 112.253 45.8473 135.595 52.4324 157.608C53.1703 159.873 49.4679 160.778 48.73 158.513C42.0535 136.191 41.749 112.435 43.8683 89.3664C44.1561 86.9293 48.0272 87.049 47.7394 89.4861Z" fill="#FFD586"/>
<path d="M46.6647 91.0835C38.9862 94.9226 31.4131 98.6631 23.7346 102.502C17.5104 105.571 11.4688 109.257 4.59802 110.369C2.2375 110.806 1.3449 107.109 3.70542 106.673C11.0891 105.474 17.8682 101.098 24.507 97.838C31.2511 94.4795 38.1006 91.0225 44.8447 87.664C47.2262 86.6166 48.9478 89.9311 46.6647 91.0835Z" fill="#FFD586"/>
<path d="M44.1354 90.4957C31.4113 80.9299 18.371 71.66 5.2254 62.4888C3.23002 61.2041 5.28112 57.9043 7.17113 59.2877C20.3168 68.4589 33.357 77.7288 46.0811 87.2946C48.0695 88.7829 46.0184 92.0826 44.1354 90.4957Z" fill="#FFD586"/>
<path d="M60.1416 43.1927C59.1948 58.8583 55.0092 73.8122 47.4933 87.7459C46.2992 89.8492 43.1024 87.9159 44.2965 85.8126C51.4822 72.5821 55.4431 58.2327 56.369 43.1779C56.46 40.531 60.2257 40.7494 60.1416 43.1927Z" fill="#FFD586"/>
<path d="M50.2196 91.4992C55.7352 97.1731 59.5788 104.018 61.1463 111.812C61.5751 114.17 57.9781 114.976 57.444 112.717C55.8555 105.534 52.4967 99.417 47.3746 94.1629C45.8077 92.28 48.5473 89.7149 50.2196 91.4992Z" fill="#FFD586"/>
<path d="M105.454 89.6404C103.662 91.3175 101.105 88.5886 102.896 86.9115C104.688 85.2343 107.245 87.9632 105.454 89.6404Z" fill="#FFD586"/>
<path d="M121.057 89.6134C119.266 91.2905 116.708 88.5617 118.5 86.8845C120.291 85.2074 122.849 87.9362 121.057 89.6134Z" fill="#FFD586"/>
<path d="M120.736 110.802C118.945 112.479 116.388 109.75 118.179 108.073C119.97 106.396 122.528 109.125 120.736 110.802Z" fill="#FFD586"/>
<path d="M106.187 109.842C104.395 111.519 101.838 108.79 103.629 107.113C105.42 105.436 107.978 108.165 106.187 109.842Z" fill="#FFD586"/>
<path d="M89.8757 133.39C88.0844 135.067 85.5269 132.338 87.3182 130.661C89.1095 128.984 91.6671 131.712 89.8757 133.39Z" fill="#FFD586"/>
<path d="M110.909 55.5657C111.106 55.7757 111.204 55.8806 111.401 56.0905C113.073 57.8748 110.333 60.4398 108.661 58.6556C108.465 58.4457 108.366 58.3407 108.169 58.1308C106.497 56.3465 109.237 53.7815 110.909 55.5657Z" fill="#FFD586"/>
<path d="M65.8409 126.531C67.429 130.759 69.3264 134.894 71.4344 138.832C72.4814 141.005 69.1585 142.737 68.1115 140.564C66.1088 136.527 64.2115 132.392 62.518 128.263C61.5693 126.195 64.8992 124.26 65.8409 126.531Z" fill="#FFD586"/>
<path d="M60.7075 11.9224C62.1763 16.6559 62.8302 21.3642 62.8658 26.2572C62.7817 28.7006 59.1144 28.5871 58.9947 26.1375C59.0505 21.553 58.2842 17.147 56.9068 12.7221C56.2743 10.3585 59.9696 9.65744 60.7075 11.9224Z" fill="#FFD586"/>
</svg>
