<svg width="149" height="196" viewBox="0 0 149 196" fill="none" xmlns="http://www.w3.org/2000/svg">
<path d="M97.1822 61.3209C98.5598 53.3495 100.69 45.5961 103.633 38.084C104.072 38.3915 104.451 38.6757 104.891 38.9831C97.6897 44.5183 90.5961 49.9551 84.9532 57.0614C84.3008 57.8568 82.9822 56.9345 83.6579 56.0784C89.4081 48.8738 96.6089 43.3386 103.894 37.7659C104.491 37.2976 105.43 37.9357 105.151 38.665C102.255 46.0555 100.111 53.6641 98.8029 61.4532C98.6132 62.4952 97.0765 62.3254 97.1822 61.3209Z" fill="#FFEDCC"/>
<path d="M103.91 76.5027C114.746 63.6503 130.98 56.3459 147.802 56.7895C147.616 57.2757 147.43 57.7618 147.244 58.248C140.116 51.7598 126.692 53.1732 117.925 54.9747C108.616 56.9172 99.9323 61.0493 92.4705 66.9026C91.6591 67.5675 90.6248 66.2663 91.4969 65.6247C99.3877 59.3782 108.697 55.0674 118.622 53.1516C127.632 51.4431 140.879 50.3103 148.166 56.929C148.742 57.4276 148.431 58.4232 147.609 58.3874C131.403 57.9706 115.612 65.0265 105.206 77.4857C104.553 78.2811 103.258 77.298 103.91 76.5027Z" fill="#FFEDCC"/>
<path d="M88.1978 51.1276C87.7947 39.6189 84.2731 28.7984 76.03 20.4907C76.5339 20.2655 76.9539 20.0778 77.4579 19.8526C79.4189 32.9323 77.6863 46.2014 72.2388 58.2586C71.8062 59.2077 70.2874 58.6268 70.72 57.6777C76.0138 45.8403 77.7517 32.9216 75.8424 20.0706C75.6961 19.1788 76.7183 18.8731 77.2703 19.4326C85.6493 27.9316 89.3583 39.1722 89.7525 50.8863C89.7916 51.8765 88.2137 52.1785 88.1978 51.1276Z" fill="#FFEDCC"/>
<path d="M112.642 54.7654C119.477 42.542 130.236 31.8898 142.169 24.5424C142.394 25.0464 142.582 25.4665 142.807 25.9705C135.15 26.8729 127.662 28.6064 120.832 32.2631C114.146 35.9055 108.546 41.0779 103.129 46.32C102.378 47.0081 101.381 45.7909 102.155 45.0421C107.619 39.6784 113.387 34.431 120.156 30.751C127.094 26.996 134.727 25.2482 142.529 24.3315C143.252 24.26 143.908 25.277 143.166 25.7596C131.34 33.0087 120.711 43.5018 113.9 55.6644C113.444 56.6743 112.149 55.6912 112.642 54.7654Z" fill="#FFEDCC"/>
<path d="M109.106 38.1574C110.261 25.8517 107.514 11.9141 100.51 1.6421C100.967 1.53845 101.402 1.49556 101.92 1.41514C98.4486 13.9496 95.1507 26.7593 88.4597 38.0622C87.9056 38.9648 86.6103 37.9817 87.1644 37.0791C93.8089 25.8978 96.9996 13.1864 100.424 0.773456C100.573 0.203302 101.464 0.0567623 101.834 0.5465C109.026 11.2385 111.9 25.5729 110.727 38.2898C110.598 39.355 109 39.1619 109.106 38.1574Z" fill="#FFEDCC"/>
<path d="M118.746 30.978C122.038 22.5544 127.658 15.5089 133.156 8.4169C133.488 8.82263 133.82 9.22836 134.153 9.63409C125.242 12.356 117.377 17.0797 110.869 23.7159C110.156 24.488 109.122 23.1868 109.896 22.4379C116.487 15.7642 124.483 10.8814 133.454 8.18276C134.164 7.96651 134.996 8.70291 134.451 9.39996C129.06 16.3936 123.51 23.2568 120.265 31.5589C119.893 32.5312 118.375 31.9503 118.746 30.978Z" fill="#FFEDCC"/>
<path d="M89.8989 59.789C88.7193 60.8703 87.6987 62.0821 86.7763 63.4011C86.1614 64.2805 84.8661 63.2974 85.481 62.4181C86.4498 60.9775 87.6384 59.6907 88.8645 58.4878C89.6759 57.823 90.6495 59.1009 89.8989 59.789Z" fill="#FFEDCC"/>
<path d="M63.1251 59.5095C85.1069 56.8416 107.754 74.2811 114.562 94.7176C118.689 107.233 116.181 120.344 112.452 132.641C110.056 140.362 106.945 147.949 103.334 155.206C100.109 161.635 96.6926 168.2 92.224 173.874C88.3006 178.852 83.1479 183.22 78.2044 187.041C73.2841 190.802 68.0352 193.6 61.8397 194.505C48.5569 196.46 35.1161 193.548 23.5739 186.765C13.897 181.113 6.17732 173.075 2.80055 162.24C-0.769053 150.635 0.827822 137.175 4.17011 125.705C6.58425 117.573 10.8764 109.811 14.7861 102.32C18.5098 95.3157 22.598 88.4507 27.4813 82.2381C36.5025 70.8512 48.5771 61.6772 63.1251 59.5095C64.1616 59.3487 64.3792 60.9644 63.4268 61.0877C36.1749 65.1532 21.3196 91.793 10.5949 114.37C0.912335 134.769 -3.01252 162.873 15.8273 179.343C25.5839 187.882 38.8187 193.153 51.7597 193.366C57.9104 193.489 64.415 193.052 70.0141 190.247C75.7812 187.368 80.6069 182.945 85.3254 178.619C95.252 169.599 101.384 156.48 106.467 144.284C111.596 131.965 116.451 117.452 114.942 103.919C112.351 80.2884 87.687 58.1071 63.366 61.0645C62.3903 61.2486 62.1119 59.6096 63.1251 59.5095Z" fill="#FFEDCC"/>
<path d="M67.6886 185.039C68.3537 183.482 68.9205 181.818 69.2211 180.122C69.3552 179.407 69.5127 178.632 69.5021 177.931C69.4899 176.324 69.1524 175.568 67.5263 175.086C64.3583 174.083 60.4909 176.365 57.7851 177.977C56.8754 178.535 56.261 177.046 57.1099 176.465C60.007 174.717 66.296 171.202 69.5744 173.918C72.7922 176.612 70.5143 182.567 69.2306 185.559C68.7747 186.569 67.256 185.988 67.6886 185.039Z" fill="#FFEDCC"/>
<path d="M43.5307 169.181C44.2497 166.391 45.9633 158.27 40.4825 159.308C37.6394 159.823 34.8924 161.907 32.7334 163.728C31.922 164.393 30.9483 163.115 31.7598 162.45C34.4692 160.282 39.9722 155.909 43.6886 158.027C47.405 160.145 45.9311 166.547 45.1102 169.786C44.7383 170.758 43.2196 170.177 43.5307 169.181Z" fill="#FFEDCC"/>
<path d="M21.9228 153.393C22.6417 150.603 24.3554 142.482 18.8746 143.52C16.0315 144.035 13.2845 146.119 11.1254 147.94C10.314 148.605 9.34042 147.327 10.1518 146.662C12.8613 144.494 18.3643 140.121 22.0807 142.239C25.7971 144.357 24.3232 150.759 23.5023 153.997C23.1912 154.993 21.6724 154.412 21.9228 153.393Z" fill="#FFEDCC"/>
<path d="M64.6757 160.69C65.3408 159.134 65.9076 157.47 66.2082 155.773C66.3424 155.058 66.4998 154.283 66.4892 153.582C66.4771 151.975 66.1395 151.219 64.5135 150.737C61.3454 149.734 57.478 152.016 54.7722 153.628C53.8625 154.186 53.2481 152.697 54.0971 152.116C56.9941 150.368 63.2831 146.853 66.5616 149.57C69.7793 152.263 67.5014 158.218 66.2177 161.21C65.7619 162.22 64.2431 161.639 64.6757 160.69Z" fill="#FFEDCC"/>
<path d="M89.2435 173.292C89.9086 171.735 90.4754 170.071 90.776 168.375C90.9102 167.66 91.0676 166.884 91.057 166.183C91.0449 164.577 90.7073 163.821 89.0813 163.338C85.9132 162.335 82.0458 164.617 79.34 166.23C78.4303 166.787 77.8159 165.298 78.6649 164.717C81.5619 162.97 87.8509 159.454 91.1294 162.171C94.3471 164.864 92.0692 170.82 90.7855 173.812C90.3904 174.845 88.8716 174.264 89.2435 173.292Z" fill="#FFEDCC"/>
<path d="M40.5178 144.832C41.2368 142.042 42.9504 133.921 37.4697 134.959C34.6265 135.474 31.8795 137.558 29.7205 139.379C28.9091 140.044 27.9355 138.766 28.7469 138.101C31.4564 135.933 36.9593 131.56 40.6757 133.678C44.3921 135.796 42.9183 142.198 42.0974 145.437C41.7255 146.409 40.2067 145.828 40.5178 144.832Z" fill="#FFEDCC"/>
<path d="M18.9099 129.044C19.6289 126.254 21.3425 118.133 15.8617 119.171C13.0186 119.686 10.2716 121.77 8.11258 123.591C7.30115 124.256 6.32755 122.978 7.13897 122.313C9.84845 120.145 15.3514 115.772 19.0678 117.89C22.7842 120.008 21.3104 126.41 20.4894 129.649C20.1175 130.621 18.6595 130.063 18.9099 129.044Z" fill="#FFEDCC"/>
<path d="M19.6113 108.276C20.3445 105.63 21.6055 100.331 18.8468 98.44C17.9678 97.8251 18.9509 96.5293 19.8299 97.1442C23.2854 99.5804 22.0207 105.436 21.1301 108.857C20.819 109.852 19.3002 109.271 19.6113 108.276Z" fill="#FFEDCC"/>
<path d="M22.9045 175.224C23.6234 172.434 25.3371 164.312 19.8563 165.351C17.0131 165.865 14.2661 167.949 12.1071 169.77C11.2957 170.435 10.3221 169.157 11.1335 168.492C13.843 166.324 19.3459 161.951 23.0623 164.069C26.7787 166.187 25.3049 172.589 24.484 175.828C24.1728 176.823 22.6541 176.243 22.9045 175.224Z" fill="#FFEDCC"/>
<path d="M86.7801 153.332C87.4451 151.776 88.012 150.112 88.3125 148.416C88.4467 147.701 88.6041 146.925 88.5936 146.224C88.5814 144.617 88.2438 143.861 86.6178 143.379C83.4498 142.376 79.5823 144.658 76.8765 146.27C75.9669 146.828 75.3525 145.339 76.2014 144.758C79.0984 143.01 85.3874 139.495 88.6659 142.212C91.8836 144.905 89.6058 150.861 88.3221 153.853C87.8662 154.862 86.3474 154.281 86.7801 153.332Z" fill="#FFEDCC"/>
<path d="M62.5614 137.451C63.2804 134.661 64.994 126.54 59.5133 127.578C56.6701 128.093 53.9231 130.177 51.7641 131.998C50.9527 132.663 49.9791 131.385 50.7905 130.72C53.5 128.552 59.0029 124.179 62.7193 126.297C66.4357 128.415 64.9619 134.817 64.141 138.056C63.8298 139.051 62.311 138.47 62.5614 137.451Z" fill="#FFEDCC"/>
<path d="M41.0142 121.687C41.7332 118.897 43.4469 110.775 37.9661 111.813C35.1229 112.328 32.3759 114.412 30.2169 116.233C29.4055 116.898 28.4319 115.62 29.2433 114.955C31.9528 112.787 37.4557 108.414 41.1721 110.532C44.8885 112.65 43.4147 119.052 42.5938 122.291C42.2219 123.263 40.7031 122.682 41.0142 121.687Z" fill="#FFEDCC"/>
<path d="M83.1813 127.784C83.8464 126.227 84.4132 124.563 84.7138 122.867C84.848 122.152 85.0054 121.377 84.9948 120.676C84.9827 119.069 84.6451 118.313 83.0191 117.831C79.851 116.828 75.9836 119.11 73.2778 120.722C72.3681 121.28 71.7537 119.791 72.6027 119.21C75.4997 117.462 81.7887 113.947 85.0672 116.663C88.2849 119.357 86.007 125.312 84.7234 128.304C84.2675 129.314 82.7487 128.733 83.1813 127.784Z" fill="#FFEDCC"/>
<path d="M59.0234 111.926C59.7424 109.136 61.456 101.015 55.9753 102.053C53.1321 102.568 50.3851 104.652 48.2261 106.473C47.4147 107.138 46.4411 105.86 47.2525 105.195C49.962 103.027 55.4649 98.6536 59.1813 100.772C62.8977 102.89 61.4239 109.292 60.603 112.531C60.2543 113.442 58.7355 112.861 59.0234 111.926Z" fill="#FFEDCC"/>
<path d="M100.983 95.4447C101.648 93.888 102.215 92.224 102.515 90.5278C102.649 89.8129 102.807 89.0372 102.796 88.3366C102.784 86.7298 102.447 85.9737 100.82 85.4911C97.6525 84.4883 93.785 86.7707 91.0792 88.3828C90.1695 88.9404 89.5552 87.4515 90.4041 86.8707C93.3011 85.1227 99.5901 81.6072 102.869 84.324C106.086 87.0176 103.808 92.9729 102.525 95.9649C102.13 96.998 100.611 96.417 100.983 95.4447Z" fill="#FFEDCC"/>
<path d="M76.8249 79.5869C77.5438 76.7969 79.2575 68.6754 73.7767 69.7137C70.9335 70.2283 68.1866 72.3123 66.0275 74.1335C65.2161 74.7984 64.2425 73.5204 65.0539 72.8556C67.7634 70.6876 73.2664 66.3141 76.9827 68.4322C80.6991 70.5503 79.2253 76.9525 78.4044 80.1911C78.1165 81.1259 76.5977 80.5449 76.8249 79.5869Z" fill="#FFEDCC"/>
<path d="M37.4155 96.1384C38.1345 93.3484 39.8481 85.2268 34.3673 86.2651C31.5242 86.7798 28.7772 88.8638 26.6182 90.685C25.8068 91.3499 24.8331 90.0719 25.6446 89.407C28.354 87.2391 33.857 82.8656 37.5734 84.9837C41.2898 87.1018 39.816 93.5039 38.995 96.7425C38.6839 97.7381 37.1884 97.0964 37.4155 96.1384Z" fill="#FFEDCC"/>
<path d="M105.276 141.39C105.995 138.6 107.708 130.478 102.228 131.517C99.3844 132.031 96.6374 134.115 94.4784 135.937C93.667 136.601 92.6934 135.323 93.5048 134.659C96.2143 132.491 101.717 128.117 105.434 130.235C109.15 132.353 107.676 138.755 106.855 141.994C106.544 142.99 105.025 142.409 105.276 141.39Z" fill="#FFEDCC"/>
<path d="M104.669 120.4C105.334 118.843 105.901 117.179 106.202 115.483C106.336 114.768 106.493 113.992 106.483 113.291C106.471 111.685 106.133 110.928 104.507 110.446C101.339 109.443 97.4714 111.725 94.7656 113.338C93.856 113.895 93.2416 112.406 94.0905 111.825C96.9875 110.077 103.277 106.562 106.555 109.279C109.773 111.972 107.495 117.928 106.211 120.92C105.755 121.93 104.237 121.349 104.669 120.4Z" fill="#FFEDCC"/>
<path d="M80.5113 104.542C81.2303 101.752 82.9439 93.6301 77.4631 94.6684C74.62 95.1831 71.873 97.2671 69.714 99.0883C68.9025 99.7532 67.9289 98.4752 68.7404 97.8103C71.4498 95.6424 76.9528 91.2689 80.6692 93.387C84.3856 95.5051 82.9117 101.907 82.0908 105.146C81.7797 106.141 80.2609 105.56 80.5113 104.542Z" fill="#FFEDCC"/>
<path d="M58.9034 88.7537C59.6223 85.9637 61.336 77.8421 55.8552 78.8804C53.012 79.3951 50.265 81.4791 48.106 83.3003C47.2946 83.9651 46.321 82.6872 47.1324 82.0223C49.8419 79.8544 55.3449 75.4809 59.0613 77.599C62.7776 79.7171 61.3038 86.1192 60.4829 89.3578C60.1717 90.3534 58.653 89.7725 58.9034 88.7537Z" fill="#FFEDCC"/>
<path d="M46.0602 189.514C46.7792 186.724 48.4928 178.602 43.012 179.641C40.1689 180.155 37.4219 182.239 35.2629 184.061C34.4514 184.726 33.4778 183.448 34.2893 182.783C36.9987 180.615 42.5017 176.241 46.2181 178.359C49.9345 180.477 48.4606 186.88 47.6397 190.118C47.2911 191.03 45.7723 190.449 46.0602 189.514Z" fill="#FFEDCC"/>
</svg>
