<svg width="129" height="38" viewBox="0 0 129 38" fill="none" xmlns="http://www.w3.org/2000/svg">
<g clip-path="url(#clip0_4_413)">
<path d="M124.012 37.924H4.97811C2.35613 37.924 0.228149 35.8066 0.228149 33.2239V4.985C0.228149 2.41179 2.34663 0.284851 4.97811 0.284851H124.012C126.615 0.284851 128.762 2.41179 128.762 5.00399V33.2334C128.762 35.7971 126.615 37.924 124.012 37.924Z" fill="black"/>
<path d="M124.012 1.04451C126.216 1.04451 128.002 2.82012 128.002 5.00403V33.2334C128.002 35.3983 126.216 37.1739 124.012 37.1739H4.97811C2.77413 37.1739 0.988143 35.3983 0.988143 33.2239V4.98504C0.988143 2.80113 2.77413 1.03501 4.97811 1.03501H124.012V1.04451ZM124.012 0.275391H4.97811C2.35613 0.275391 0.228149 2.40233 0.228149 4.99453V33.2334C0.228149 35.7971 2.35613 37.9241 4.97811 37.9241H124.012C126.625 37.9241 128.762 35.8066 128.762 33.2239V4.98504C128.762 2.39283 126.625 0.275391 124.012 0.275391Z" fill="#A6A6A6"/>
<path d="M45.3226 9.92236C45.3226 10.6988 45.0847 11.3341 44.6089 11.8047C44.0856 12.3576 43.3839 12.6282 42.5156 12.6282C41.683 12.6282 40.9932 12.3576 40.4223 11.8047C39.8633 11.2165 39.5897 10.5106 39.5897 9.68707C39.5897 8.86354 39.8633 8.15766 40.4461 7.56943C41.0408 7.0165 41.7306 6.74591 42.5513 6.74591C42.9557 6.74591 43.3482 6.8165 43.7407 6.9812C44.0975 7.13414 44.383 7.33414 44.6089 7.60473L44.1332 8.09884C43.7407 7.65179 43.2174 7.44002 42.5513 7.44002C41.9566 7.44002 41.4333 7.61649 41.0051 8.02825C40.5531 8.45178 40.339 8.96942 40.339 9.6753C40.339 10.3341 40.5769 10.8753 41.0051 11.3223C41.4452 11.7106 41.9566 11.9106 42.5513 11.9106C43.2055 11.9106 43.7407 11.7106 44.157 11.2871C44.4543 11.0165 44.6089 10.6282 44.6565 10.1459H42.5751V9.4753H45.3464C45.382 9.62824 45.382 9.76942 45.382 9.89883L45.3226 9.92236ZM49.7233 7.56943H47.1067V9.33413H49.4617V10.04H47.1423V11.8047H49.7352V12.5106H46.4049V6.86356H49.7352V7.56943H49.7233ZM52.8157 12.5106H52.1021L52.0664 7.56943H50.4845V6.86356H54.4095V7.56943H52.78V12.5106H52.8157ZM57.2403 12.5106V6.86356H57.9777V12.5106H57.2403ZM61.2247 12.5106H60.5111V7.56943H58.8935V6.86356H62.8185V7.56943H61.2247V12.5106ZM70.2641 11.7812C69.6694 12.3694 68.9914 12.64 68.1588 12.64C67.3263 12.64 66.6126 12.3812 66.0655 11.8165C65.5065 11.2282 65.233 10.5224 65.233 9.69883C65.233 8.87531 65.4946 8.16943 66.0655 7.61649C66.6245 7.02826 67.3263 6.75768 68.1588 6.75768C68.9914 6.75768 69.6813 7.02826 70.2403 7.60473C70.8112 8.19296 71.0729 8.87531 71.0729 9.69883C71.0729 10.5224 70.8112 11.2282 70.2403 11.7929L70.2641 11.7812ZM66.6007 11.3106C67.0289 11.7341 67.5523 11.9459 68.147 11.9459C68.7654 11.9459 69.2888 11.7341 69.6932 11.3106C70.1332 10.8871 70.3473 10.3459 70.3473 9.68707C70.3473 9.02825 70.1332 8.48707 69.7051 8.06355C69.2888 7.64002 68.7535 7.42826 68.1588 7.42826C67.5404 7.42826 67.0289 7.64002 66.6126 8.06355C66.1845 8.48707 65.9704 9.02825 65.9704 9.68707C65.9704 10.3459 66.1607 10.8871 66.5651 11.3106H66.6007ZM72.1195 12.5106V6.86356H73.0116L75.8066 11.2518H75.8423L75.8066 10.1694V6.87532H76.544V12.5223H75.7828L72.8688 7.93414H72.845L72.8688 9.01648V12.5459H72.1552L72.1195 12.5106Z" fill="white" stroke="white" stroke-width="0.199277" stroke-miterlimit="10"/>
<path d="M65.1029 20.7566C62.8609 20.7566 61.0369 22.4468 61.0369 24.7636C61.0369 27.0615 62.8609 28.7516 65.1029 28.7516C67.3449 28.7516 69.1688 27.0615 69.1688 24.7636C69.1688 22.4468 67.3639 20.7566 65.1219 20.7566H65.1029ZM65.1029 27.1849C63.8679 27.1849 62.8229 26.1879 62.8229 24.7636C62.8229 23.3204 63.8679 22.3328 65.1029 22.3328C66.3379 22.3328 67.3829 23.3204 67.3829 24.7636C67.3829 26.1879 66.3379 27.1849 65.1029 27.1849ZM56.23 20.7566C53.969 20.7566 52.145 22.4468 52.145 24.7636C52.145 27.0615 53.95 28.7516 56.211 28.7516C58.4434 28.7516 60.2674 27.0615 60.2674 24.7636C60.2674 22.4468 58.4434 20.7566 56.2015 20.7566H56.23ZM56.23 27.1849C54.995 27.1849 53.9215 26.1879 53.9215 24.7636C53.9215 23.3204 54.9855 22.3328 56.2015 22.3328C57.4364 22.3328 58.5004 23.3204 58.5004 24.7636C58.5004 26.1879 57.4269 27.1849 56.2205 27.1849H56.23ZM45.685 21.991V23.7002H49.77C49.675 24.6497 49.333 25.3333 48.839 25.8271C48.2405 26.4158 47.3 27.0615 45.666 27.0615C43.1201 27.0615 41.1441 25.0485 41.1441 22.5512C41.1441 20.054 43.1486 18.041 45.6945 18.041C47.053 18.041 48.041 18.5632 48.782 19.2469L49.9885 18.041C48.9625 17.0915 47.5945 16.3318 45.685 16.3318C42.1986 16.3318 39.2821 19.1235 39.2821 22.5512C39.2821 25.9695 42.1986 28.7611 45.666 28.7611C47.528 28.7611 48.934 28.1344 50.036 26.995C51.176 25.8746 51.5275 24.2984 51.5275 23.026C51.5275 22.6462 51.499 22.2664 51.4325 21.9815H45.6945L45.685 21.991ZM88.8147 23.3014C88.4727 22.4088 87.4372 20.7566 85.3377 20.7566C83.2477 20.7566 81.5187 22.3708 81.5187 24.7636C81.5187 27.0045 83.2287 28.7516 85.5372 28.7516C87.3992 28.7516 88.4822 27.6407 88.9097 26.9855L87.5417 26.0835C87.0857 26.7481 86.4587 27.1849 85.5467 27.1849C84.6442 27.1849 83.9982 26.7766 83.5897 25.979L89.0047 23.7571L88.8147 23.3014ZM83.3047 24.6307C83.2382 23.0925 84.5017 22.3044 85.3947 22.3044C86.1072 22.3044 86.7247 22.6367 86.9147 23.1304L83.3047 24.6212V24.6307ZM78.8777 28.5238H80.6637V16.7496H78.8777V28.5238ZM75.9613 21.6492H75.9043C75.5243 21.1744 74.7643 20.7566 73.7858 20.7566C71.7528 20.7566 69.8908 22.5228 69.8908 24.7731C69.8908 26.995 71.7528 28.7611 73.7858 28.7611C74.7548 28.7611 75.5148 28.3149 75.9138 27.8306H75.9803V28.4003C75.9803 29.9385 75.1538 30.7741 73.8238 30.7741C72.7408 30.7741 72.0663 29.986 71.7908 29.3308L70.2423 29.9765C70.6888 31.04 71.8573 32.3503 73.8333 32.3503C75.9233 32.3503 77.6998 31.1349 77.6998 28.1724V20.994H75.9993V21.6397L75.9613 21.6492ZM73.9283 27.1849C72.6933 27.1849 71.6768 26.1689 71.6768 24.7731C71.6768 23.3488 72.7028 22.3044 73.9283 22.3044C75.1348 22.3044 76.0943 23.3488 76.0943 24.7541C76.0943 26.1404 75.1443 27.1564 73.9378 27.1564L73.9283 27.1849ZM97.1461 16.7591H92.8711V28.5332H94.6571V24.0705H97.1461C99.1126 24.0705 101.041 22.6462 101.041 20.4148C101.041 18.1739 99.1126 16.7591 97.1461 16.7591ZM97.1936 22.4278H94.6571V18.3923H97.1936C98.5236 18.3923 99.2836 19.4843 99.2836 20.4148C99.2836 21.3264 98.5236 22.4278 97.1936 22.4278ZM108.166 20.7376C106.883 20.7376 105.554 21.3074 105.003 22.5417L106.579 23.1874C106.931 22.5417 107.548 22.3328 108.213 22.3328C109.135 22.3328 110.066 22.8741 110.085 23.8521V23.966C109.743 23.7761 109.04 23.5103 108.204 23.5103C106.513 23.5103 104.784 24.4313 104.784 26.1499C104.784 27.7262 106.171 28.7421 107.729 28.7421C108.926 28.7421 109.591 28.2104 110.009 27.6027H110.066V28.4858H111.776V23.9755C111.776 21.8866 110.189 20.7187 108.147 20.7187L108.166 20.7376ZM107.957 27.1944C107.387 27.1944 106.56 26.9096 106.56 26.1879C106.56 25.2764 107.567 24.9251 108.441 24.9251C109.22 24.9251 109.581 25.096 110.056 25.3239C109.923 26.4158 108.973 27.1849 107.947 27.1849L107.957 27.1944ZM118.027 20.994L115.994 26.1215H115.946L113.837 21.013H111.918L115.101 28.1344L113.296 32.1225H115.148L120.041 21.013H118.065L118.027 20.994ZM102.029 28.5427H103.815V16.7686H102.029V28.5427Z" fill="white"/>
<path d="M10.1404 7.36945C9.85494 7.66356 9.70032 8.11062 9.70032 8.69885V29.5222C9.70032 30.0869 9.85494 30.5457 10.1404 30.8163L10.2118 30.8987L22.0224 19.2517V18.9576L10.2474 7.31063L10.1642 7.36945H10.1404Z" fill="url(#paint0_linear_4_413)"/>
<path d="M25.9236 23.1223L21.9987 19.2399V18.9576L25.9236 15.0753L26.0188 15.1223L30.6574 17.7458C32.0014 18.487 32.0014 19.7105 30.6574 20.4517L26.0188 23.0752L25.9236 23.1223Z" fill="url(#paint1_linear_4_413)"/>
<path d="M26.0187 23.0752L21.9986 19.0988L10.1404 30.8281C10.5805 31.2987 11.2941 31.3457 12.1148 30.8869L26.0306 23.0752" fill="url(#paint2_linear_4_413)"/>
<path d="M26.0187 15.1223L12.1029 7.31061C11.2941 6.84002 10.5805 6.91061 10.1404 7.36943L21.9986 19.0988L26.0187 15.1223Z" fill="url(#paint3_linear_4_413)"/>
</g>
<defs>
<linearGradient id="paint0_linear_4_413" x1="20.9519" y1="29.7246" x2="5.16006" y2="13.7592" gradientUnits="userSpaceOnUse">
<stop stop-color="#00A0FF"/>
<stop offset="0.01" stop-color="#00A1FF"/>
<stop offset="0.26" stop-color="#00BEFF"/>
<stop offset="0.51" stop-color="#00D2FF"/>
<stop offset="0.76" stop-color="#00DFFF"/>
<stop offset="1" stop-color="#00E3FF"/>
</linearGradient>
<linearGradient id="paint1_linear_4_413" x1="32.3987" y1="19.0988" x2="9.38162" y2="19.0988" gradientUnits="userSpaceOnUse">
<stop stop-color="#FFE000"/>
<stop offset="0.41" stop-color="#FFBD00"/>
<stop offset="0.78" stop-color="#FFA500"/>
<stop offset="1" stop-color="#FF9C00"/>
</linearGradient>
<linearGradient id="paint2_linear_4_413" x1="23.835" y1="16.9341" x2="2.41517" y2="-4.71162" gradientUnits="userSpaceOnUse">
<stop stop-color="#FF3A44"/>
<stop offset="1" stop-color="#C31162"/>
</linearGradient>
<linearGradient id="paint3_linear_4_413" x1="7.15501" y1="37.7527" x2="16.7167" y2="28.086" gradientUnits="userSpaceOnUse">
<stop stop-color="#32A071"/>
<stop offset="0.07" stop-color="#2DA771"/>
<stop offset="0.48" stop-color="#15CF74"/>
<stop offset="0.8" stop-color="#06E775"/>
<stop offset="1" stop-color="#00F076"/>
</linearGradient>
<clipPath id="clip0_4_413">
<rect width="128.933" height="38" fill="white"/>
</clipPath>
</defs>
</svg>
