<svg width="20" height="20" viewBox="0 0 20 20" fill="none" xmlns="http://www.w3.org/2000/svg">
<path fill-rule="evenodd" clip-rule="evenodd" d="M9.16663 1.66675C13.3088 1.66675 16.6666 5.02461 16.6666 9.16675C16.6666 10.9374 16.053 12.5647 15.0269 13.8477L18.0892 16.9108C18.4147 17.2363 18.4147 17.7639 18.0892 18.0893C17.7888 18.3897 17.3161 18.4128 16.9892 18.1587L16.9107 18.0893L13.8476 15.027C12.5646 16.0532 10.9373 16.6667 9.16663 16.6667C5.02449 16.6667 1.66663 13.3089 1.66663 9.16675C1.66663 5.02461 5.02449 1.66675 9.16663 1.66675ZM9.16663 3.33341C5.94496 3.33341 3.33329 5.94509 3.33329 9.16675C3.33329 12.3884 5.94496 15.0001 9.16663 15.0001C12.3883 15.0001 15 12.3884 15 9.16675C15 5.94509 12.3883 3.33341 9.16663 3.33341Z" fill="white"/>
</svg>
