<svg width="25" height="23" viewBox="0 0 25 23" fill="none" xmlns="http://www.w3.org/2000/svg">
<path d="M1.19055 8.30591H23.8096V20.4448H1.19055V8.30591Z" fill="#999999"/>
<path d="M1.19055 20.4441H23.8096V22.9996H1.19055V20.4441Z" fill="#999999"/>
<path d="M14.2857 11.5H21.4286V23H14.2857V11.5Z" fill="white"/>
<path d="M4.16663 12.1392H11.3095V17.8892H4.16663V12.1392Z" fill="white"/>
<path d="M12.4999 10.2225C13.4862 10.2225 14.2857 9.36437 14.2857 8.30583C14.2857 7.24728 13.4862 6.38916 12.4999 6.38916C11.5137 6.38916 10.7142 7.24728 10.7142 8.30583C10.7142 9.36437 11.5137 10.2225 12.4999 10.2225Z" fill="#999999"/>
<path d="M19.6428 10.2225C20.6291 10.2225 21.4285 9.36437 21.4285 8.30583C21.4285 7.24728 20.6291 6.38916 19.6428 6.38916C18.6566 6.38916 17.8571 7.24728 17.8571 8.30583C17.8571 9.36437 18.6566 10.2225 19.6428 10.2225Z" fill="#999999"/>
<path d="M5.35713 10.2225C6.34335 10.2225 7.14284 9.36437 7.14284 8.30583C7.14284 7.24728 6.34335 6.38916 5.35713 6.38916C4.3709 6.38916 3.57141 7.24728 3.57141 8.30583C3.57141 9.36437 4.3709 10.2225 5.35713 10.2225Z" fill="#999999"/>
<path d="M22.0239 0H2.97624C2.32148 0 1.78577 0.575 1.78577 1.27778V3.19444H23.2143V1.27778C23.2143 0.575 22.6786 0 22.0239 0Z" fill="#999999"/>
<path d="M10.7142 3.19409H14.2857V8.3052H10.7142V3.19409Z" fill="#999999"/>
<path d="M20.2382 3.19409H17.262L17.8572 8.3052H21.4286L20.2382 3.19409Z" fill="#999999"/>
<path d="M4.76189 3.19409H7.73808L7.14284 8.3052H3.57141L4.76189 3.19409Z" fill="#999999"/>
<path d="M16.0714 10.2225C17.0576 10.2225 17.8571 9.36437 17.8571 8.30583C17.8571 7.24728 17.0576 6.38916 16.0714 6.38916C15.0852 6.38916 14.2857 7.24728 14.2857 8.30583C14.2857 9.36437 15.0852 10.2225 16.0714 10.2225Z" fill="#999999" fill-opacity="0.5"/>
<path d="M25 8.30583C25 9.39194 24.2262 10.2225 23.2143 10.2225C22.2024 10.2225 21.4286 9.39194 21.4286 8.30583C21.4286 7.21972 22.2024 6.38916 23.2143 6.38916L25 8.30583Z" fill="#999999" fill-opacity="0.5"/>
<path d="M8.92854 10.2225C9.91476 10.2225 10.7143 9.36437 10.7143 8.30583C10.7143 7.24728 9.91476 6.38916 8.92854 6.38916C7.94231 6.38916 7.14282 7.24728 7.14282 8.30583C7.14282 9.36437 7.94231 10.2225 8.92854 10.2225Z" fill="#999999" fill-opacity="0.5"/>
<path d="M0 8.30583C0 9.39194 0.773809 10.2225 1.78571 10.2225C2.79762 10.2225 3.57143 9.39194 3.57143 8.30583C3.57143 7.21972 2.79762 6.38916 1.78571 6.38916L0 8.30583Z" fill="#999999" fill-opacity="0.5"/>
<path d="M17.2619 3.19409H14.2857V8.3052H17.8571L17.2619 3.19409Z" fill="#CCCCCC"/>
<path d="M23.2143 3.19409H20.2381L21.4286 8.3052H25L23.2143 3.19409Z" fill="#CCCCCC"/>
<path d="M7.73806 3.19409H10.7143V8.3052H7.14282L7.73806 3.19409Z" fill="#CCCCCC"/>
<path d="M1.78571 3.19409H4.76191L3.57143 8.3052H0L1.78571 3.19409Z" fill="#CCCCCC"/>
</svg>
