<svg width="22" height="21" viewBox="0 0 22 21" fill="none" xmlns="http://www.w3.org/2000/svg">
<path fill-rule="evenodd" clip-rule="evenodd" d="M11.1722 0C5.38274 0 0.689453 4.69329 0.689453 10.4828C0.689453 16.2722 5.38274 20.9655 11.1722 20.9655C16.9617 20.9655 21.655 16.2722 21.655 10.4828C21.655 4.69329 16.9617 0 11.1722 0ZM10.8802 8.88337L10.8582 8.52064C10.7922 7.58051 11.3715 6.72181 12.288 6.38869C12.6253 6.27025 13.1973 6.25545 13.5712 6.35908C13.7179 6.4035 13.9965 6.55155 14.1945 6.6848L14.5538 6.92908L14.9497 6.80324C15.1697 6.73662 15.463 6.62558 15.595 6.55155C15.7196 6.48493 15.8296 6.44791 15.8296 6.47012C15.8296 6.59597 15.5583 7.02532 15.331 7.2622C15.0231 7.59532 15.111 7.62493 15.7343 7.40285C16.1083 7.277 16.1156 7.277 16.0423 7.41765C15.9983 7.49168 15.771 7.75077 15.529 7.98765C15.1184 8.3948 15.0964 8.43921 15.0964 8.77973C15.0964 9.30532 14.8471 10.4009 14.5978 11.0005C14.1358 12.1257 13.1459 13.2879 12.1561 13.8727C10.7629 14.6944 8.90777 14.9017 7.34596 14.4205C6.82535 14.2577 5.93079 13.8431 5.93079 13.7691C5.93079 13.7469 6.20209 13.7173 6.53205 13.7099C7.22131 13.6951 7.91056 13.5026 8.49716 13.1621L8.89311 12.9252L8.4385 12.7697C7.79324 12.5477 7.21397 12.0369 7.06732 11.5557C7.02333 11.4002 7.03799 11.3928 7.44861 11.3928L7.8739 11.3854L7.5146 11.2152C7.08932 11.0005 6.7007 10.6378 6.51006 10.2677C6.37074 10.0012 6.19476 9.32752 6.24609 9.27571C6.26075 9.2535 6.41473 9.29791 6.59071 9.35713C7.09665 9.5422 7.16265 9.49778 6.86935 9.18687C6.31941 8.62428 6.15076 7.78778 6.41473 6.99571L6.53939 6.64038L7.02333 7.12155C8.01321 8.09129 9.17908 8.66869 10.5136 8.83895L10.8802 8.88337Z" fill="#121212"/>
</svg>
