<svg width="21" height="21" viewBox="0 0 21 21" fill="none" xmlns="http://www.w3.org/2000/svg">
<path fill-rule="evenodd" clip-rule="evenodd" d="M10.5169 0C4.72747 0 0.0341797 4.69329 0.0341797 10.4828C0.0341797 16.2722 4.72747 20.9655 10.5169 20.9655C16.3064 20.9655 20.9997 16.2722 20.9997 10.4828C20.9997 4.69329 16.3064 0 10.5169 0ZM14.8854 6.87906C15.3666 7.01108 15.7455 7.40008 15.8741 7.89409C16.1077 8.78941 16.1077 10.6575 16.1077 10.6575C16.1077 10.6575 16.1077 12.5255 15.8741 13.4209C15.7455 13.9149 15.3666 14.3039 14.8854 14.436C14.0135 14.6759 10.5169 14.6759 10.5169 14.6759C10.5169 14.6759 7.02032 14.6759 6.14834 14.436C5.66722 14.3039 5.28831 13.9149 5.15972 13.4209C4.92612 12.5255 4.92612 10.6575 4.92612 10.6575C4.92612 10.6575 4.92612 8.78941 5.15972 7.89409C5.28831 7.40008 5.66722 7.01108 6.14834 6.87906C7.02032 6.63912 10.5169 6.63912 10.5169 6.63912C10.5169 6.63912 14.0135 6.63912 14.8854 6.87906Z" fill="#121212"/>
<path fill-rule="evenodd" clip-rule="evenodd" d="M9.46875 12.5795V9.08521L12.2642 10.8324L9.46875 12.5795Z" fill="#121212"/>
</svg>
